<svg id="wave" style="transform:rotate(0deg); transition: 0.3s" viewBox="0 0 1440 140" version="1.1" xmlns="http://www.w3.org/2000/svg"><defs><linearGradient id="sw-gradient-0" x1="0" x2="0" y1="1" y2="0"><stop stop-color="rgba(38, 192, 110, 1)" offset="0%"></stop><stop stop-color="rgba(23.226, 255, 11, 1)" offset="100%"></stop></linearGradient></defs><path style="transform:translate(0, 0px); opacity:1" fill="url(#sw-gradient-0)" d="M0,126L30,116.7C60,107,120,89,180,67.7C240,47,300,23,360,11.7C420,0,480,0,540,16.3C600,33,660,65,720,86.3C780,107,840,117,900,105C960,93,1020,61,1080,42C1140,23,1200,19,1260,35C1320,51,1380,89,1440,100.3C1500,112,1560,98,1620,93.3C1680,89,1740,93,1800,81.7C1860,70,1920,42,1980,42C2040,42,2100,70,2160,88.7C2220,107,2280,117,2340,112C2400,107,2460,89,2520,86.3C2580,84,2640,98,2700,93.3C2760,89,2820,65,2880,63C2940,61,3000,79,3060,72.3C3120,65,3180,33,3240,21C3300,9,3360,19,3420,32.7C3480,47,3540,65,3600,70C3660,75,3720,65,3780,58.3C3840,51,3900,47,3960,53.7C4020,61,4080,79,4140,77C4200,75,4260,51,4290,39.7L4320,28L4320,140L4290,140C4260,140,4200,140,4140,140C4080,140,4020,140,3960,140C3900,140,3840,140,3780,140C3720,140,3660,140,3600,140C3540,140,3480,140,3420,140C3360,140,3300,140,3240,140C3180,140,3120,140,3060,140C3000,140,2940,140,2880,140C2820,140,2760,140,2700,140C2640,140,2580,140,2520,140C2460,140,2400,140,2340,140C2280,140,2220,140,2160,140C2100,140,2040,140,1980,140C1920,140,1860,140,1800,140C1740,140,1680,140,1620,140C1560,140,1500,140,1440,140C1380,140,1320,140,1260,140C1200,140,1140,140,1080,140C1020,140,960,140,900,140C840,140,780,140,720,140C660,140,600,140,540,140C480,140,420,140,360,140C300,140,240,140,180,140C120,140,60,140,30,140L0,140Z"></path></svg>